<?xml version="1.0" encoding="utf-8"?>
<!-- Generator: Adobe Illustrator 20.1.0, SVG Export Plug-In . SVG Version: 6.00 Build 0)  -->
<svg version="1.1" id="Layer_1" xmlns="http://www.w3.org/2000/svg" xmlns:xlink="http://www.w3.org/1999/xlink" x="0px" y="0px"
	 viewBox="0 0 17 17" style="enable-background:new 0 0 17 17;" xml:space="preserve">

<title>add</title>
<desc>Created with Sketch.</desc>
<path d="M8.3,0C6.8,0,5.4,0.4,4.1,1.1c-1.3,0.7-2.2,1.7-3,3C0.4,5.4,0,6.8,0,8.3s0.4,2.9,1.1,4.2
	c0.7,1.3,1.7,2.2,3,3c1.3,0.8,2.7,1.1,4.2,1.1c1.5,0,2.9-0.4,4.2-1.1c1.3-0.7,2.2-1.7,3-3c0.8-1.3,1.1-2.7,1.1-4.2s-0.4-2.9-1.1-4.2
	c-0.7-1.3-1.7-2.2-3-3C11.2,0.4,9.8,0,8.3,0L8.3,0z M14,8.9c0,0.2,0,0.4-0.1,0.6H9.4V14C9.2,14,9,14,8.8,14.1c-0.2,0-0.4,0-0.6,0
	c-0.2,0-0.3,0-0.5,0c-0.2,0-0.4,0-0.6-0.1V9.4H2.7C2.6,9.2,2.6,9,2.6,8.8c0-0.2,0-0.4,0-0.6c0-0.2,0-0.3,0-0.5c0-0.2,0-0.4,0.1-0.6
	h4.5V2.7c0.2,0,0.4-0.1,0.6-0.1c0.2,0,0.3,0,0.6,0c0.2,0,0.4,0,0.5,0c0.2,0,0.3,0,0.6,0.1v4.5h4.5C14,7.4,14,7.6,14,7.8
	c0,0.2,0,0.3,0,0.6C14.1,8.5,14.1,8.7,14,8.9L14,8.9z"/>
</svg>
