<?xml version="1.0" encoding="utf-8"?>
<!-- Generator: Adobe Illustrator 20.1.0, SVG Export Plug-In . SVG Version: 6.00 Build 0)  -->
<svg version="1.1" id="Layer_1" xmlns="http://www.w3.org/2000/svg" xmlns:xlink="http://www.w3.org/1999/xlink" x="0px" y="0px"
	 viewBox="0 0 14 15" style="enable-background:new 0 0 14 15;" xml:space="preserve">
<path d="M10.4,5.9l0.8,0.8l-0.1,0.1c-2.9,2.9-4.8,4.7-5.7,5.6c-0.3,0.3-0.6,0.4-0.9,0.5l-4,1.2L0.3,14c-0.1,0-0.1-0.1-0.2-0.2
	c0,0-0.1-0.1-0.1-0.3c0.4-1.5,0.8-2.9,1.2-4l0.1-0.3c0-0.2,0.1-0.3,0.3-0.4L7.4,3l0.1-0.1l0.7,0.7L8.1,3.8L2.4,9.4
	C2.3,9.5,2.3,9.6,2.2,9.7L1.5,12c0,0.1,0,0.2,0.1,0.2l0.2,0.2c0.1,0.1,0.1,0.1,0.2,0.2c0,0,0,0,0.1,0h0.1c0.7-0.2,1.5-0.4,2.3-0.7
	c0,0,0.1-0.1,0.2-0.1L10.3,6L10.4,5.9z M3.8,11.2l6.1-6l-1-1l-6,6l0.7,0.2h0.1v0.1C3.7,10.6,3.7,10.8,3.8,11.2z M8.4,1.9
	C8.2,2.1,8.1,2.2,8,2.3l3.8,3.8l0.8-0.8L8.8,1.5L8.4,1.9z M13.6,2.3c-0.6-0.7-1.2-1.2-1.8-1.8c-0.3-0.3-0.6-0.4-0.9-0.4
	c-0.3,0-0.6,0.1-0.9,0.4c0,0-0.2,0.2-0.5,0.5l3.6,3.6l0.5-0.5C13.9,3.9,14,3.5,14,3.2C14,2.8,13.9,2.5,13.6,2.3z"/>
</svg>
