<?xml version="1.0" encoding="utf-8"?>
<!-- Generator: Adobe Illustrator 19.0.0, SVG Export Plug-In . SVG Version: 6.00 Build 0)  -->
<svg version="1.1" id="Layer_1" xmlns="http://www.w3.org/2000/svg" xmlns:xlink="http://www.w3.org/1999/xlink" x="0px" y="0px"
	 viewBox="0 0 99.6 111.8" style="enable-background:new 0 0 99.6 111.8;" xml:space="preserve">
<style type="text/css">
	.st0{fill:#66BC48;}
</style>
<path id="XMLID_6_" class="st0" d="M44.8,1.3c3.2-1.8,7.1-1.8,10.1,0l39.7,23c0.2,0.2,0.3,0.2,0.5,0.3c0.3,0.2,0.6,0.5,1,0.6
	c0.3,0.2,0.5,0.5,0.6,0.6c0.2,0.2,0.5,0.5,0.6,0.6c0.2,0.3,0.5,0.6,0.6,1c0.2,0.2,0.2,0.3,0.3,0.5c0,0.2,0.2,0.2,0.2,0.3
	c0.2,0.3,0.3,0.6,0.5,1c0.2,0.3,0.2,0.6,0.3,0.8c0.2,0.3,0.2,0.6,0.2,1c0,0.3,0.2,0.6,0.2,1c0,0.3,0,0.6,0,1c0,0.3,0,0.6,0,1
	c0,0.3-0.2,0.6-0.2,1c0,0.3-0.2,0.6-0.2,1c-0.2,0.3-0.2,0.6-0.3,1c-0.2,0.3-0.3,0.6-0.5,1c0,0.2,0,0.2-0.2,0.3
	c-0.2,0.2-0.2,0.3-0.3,0.5c-0.2,0.3-0.5,0.6-0.6,1c-0.2,0.3-0.5,0.5-0.6,0.6c-0.2,0.2-0.5,0.5-0.6,0.6c-0.3,0.2-0.6,0.5-1,0.6
	c-0.2,0.2-0.3,0.2-0.5,0.3L58.2,63c-1.6,1-3.4,1.4-5.1,1.4c-3.5,0-6.9-1.8-8.8-5.1c-2.9-4.8-1.1-11.1,3.7-13.8l21.2-12.4L49.6,21.9
	l-29.2,17V73L50,90l34.5-19.9c4.8-2.7,11.1-1.1,13.8,3.7c2.7,4.8,1.1,11.1-3.7,13.8l-39.7,23c-1.6,1-3.4,1.3-5.1,1.3
	s-3.5-0.5-5.1-1.3l-39.5-23C1.9,85.8,0,82.4,0,78.8V33c0-3.7,1.9-6.9,5.1-8.8L44.8,1.3z"/>
</svg>
