<?xml version="1.0" encoding="utf-8"?>
<!-- Generator: Adobe Illustrator 20.1.0, SVG Export Plug-In . SVG Version: 6.00 Build 0)  -->
<svg version="1.1" id="info" xmlns="http://www.w3.org/2000/svg" xmlns:xlink="http://www.w3.org/1999/xlink" x="0px" y="0px"
	 viewBox="0 0 14 14" style="enable-background:new 0 0 14 14;" xml:space="preserve">
<path d="M7,0c1.3,0,2.4,0.3,3.5,1c1.1,0.6,1.9,1.5,2.5,2.5c0.6,1.1,1,2.3,1,3.5c0,1.3-0.3,2.4-1,3.5c-0.6,1.1-1.5,1.9-2.5,2.5
	c-1.1,0.7-2.2,1-3.5,1s-2.4-0.3-3.5-0.9c-1.1-0.6-1.9-1.5-2.5-2.5C0.3,9.5,0,8.3,0,7s0.3-2.4,1-3.5C1.6,2.4,2.4,1.6,3.5,1
	C4.6,0.3,5.7,0,7,0L7,0z M10,12.1c0.9-0.5,1.6-1.2,2.1-2.1c0.5-0.9,0.8-1.9,0.8-3s-0.3-2.1-0.8-3S10.9,2.4,10,1.9
	C9.1,1.4,8.1,1.1,7,1.1S4.9,1.4,4,1.9S2.4,3.1,1.9,4S1.1,5.9,1.1,7s0.3,2.1,0.8,3s1.2,1.6,2.1,2.1s1.9,0.8,3,0.8
	C8.1,12.9,9.1,12.6,10,12.1z M8.4,9.6c0.1,0.3-0.7,0.8-1.4,1.3c0,0-0.3,0.2-0.5,0.2c0,0,0,0,0,0l0,0c0,0-0.1,0-0.1,0l-0.1,0
	c-0.4-0.1-0.6-0.5-0.5-0.9L6.3,8l0.2-1c0.2-0.9-0.7,0.2-0.9-0.2C5.5,6.6,6.3,6,7,5.6c0,0,0.3-0.2,0.5-0.2c0,0,0,0,0,0l0,0
	c0,0,0.1,0,0.1,0l0.1,0c0.4,0.1,0.6,0.5,0.5,0.9L7.7,8.4l-0.2,1C7.3,10.2,8.2,9.2,8.4,9.6z M7.4,4.9c0.5,0,1-0.4,1-1s-0.4-1-1-1
	s-1,0.4-1,1S6.8,4.9,7.4,4.9z"/>
</svg>
