<?xml version="1.0" encoding="utf-8"?>
<!-- Generator: Adobe Illustrator 20.1.0, SVG Export Plug-In . SVG Version: 6.00 Build 0)  -->
<svg version="1.1" id="Layer_1" xmlns="http://www.w3.org/2000/svg" xmlns:xlink="http://www.w3.org/1999/xlink" x="0px" y="0px"
	 viewBox="0 0 14 14" style="enable-background:new 0 0 14 14;" xml:space="preserve">

<title>off</title>
<desc>Created with Sketch.</desc>
<path d="M12.3,4.3c-0.4-0.7-0.8-1.2-1.4-1.7c-0.1-0.1-0.2-0.1-0.3-0.1s-0.2,0.1-0.3,0.1L9.7,3.5
	C9.6,3.6,9.6,3.7,9.6,3.8c0,0.1,0.1,0.2,0.1,0.3c0.7,0.6,1.1,1.3,1.3,2.2c0.2,0.8,0.2,1.6,0,2.4c-0.2,0.8-0.6,1.5-1.2,2.1
	c-0.6,0.6-1.3,1-2.1,1.2c-0.8,0.2-1.5,0.3-2.3,0.1c-0.8-0.2-1.5-0.5-2.1-1.1c-1-0.9-1.5-2.1-1.6-3.4c0-1.3,0.5-2.5,1.5-3.4
	C3.4,4,3.5,3.9,3.5,3.8s0-0.2-0.1-0.3L2.8,2.7C2.7,2.6,2.6,2.5,2.5,2.5c-0.1,0-0.2,0-0.3,0.1c-0.7,0.6-1.2,1.2-1.6,2
	C0.3,5.4,0.1,6.2,0,7.1C0,8,0.1,8.8,0.4,9.7c0.3,0.9,0.8,1.7,1.6,2.4c0.7,0.7,1.5,1.2,2.5,1.5c1,0.3,2,0.4,3,0.3
	c0.9-0.1,1.8-0.5,2.6-1c0.8-0.5,1.5-1.2,2-2c0.5-0.8,0.9-1.8,1-2.8C13.2,6.8,12.9,5.5,12.3,4.3L12.3,4.3z M6,6.5h1.1
	c0.1,0,0.2,0,0.3-0.1s0.1-0.2,0.1-0.3V0.4c0-0.1,0-0.2-0.1-0.3C7.3,0,7.2,0,7.1,0H6C5.9,0,5.8,0,5.7,0.1C5.7,0.2,5.6,0.3,5.6,0.4
	v5.7c0,0.1,0,0.2,0.1,0.3S5.9,6.5,6,6.5L6,6.5z"/>
</svg>
