<?xml version="1.0" encoding="utf-8"?>
<!-- Generator: Adobe Illustrator 20.1.0, SVG Export Plug-In . SVG Version: 6.00 Build 0)  -->
<svg version="1.1" id="Layer_1" xmlns="http://www.w3.org/2000/svg" xmlns:xlink="http://www.w3.org/1999/xlink" x="0px" y="0px"
	 viewBox="0 0 14 15" style="enable-background:new 0 0 14 15;" xml:space="preserve">

<title>org</title>
<desc>Created with Sketch.</desc>
<path d="M11.1,1.4C11,1,11,0.8,10.9,0.7c-0.1-0.1-0.2-0.2-0.3-0.3c-0.1,0-0.4,0-0.7,0h-2
	c-0.3,0-0.5,0-0.6,0.1c-0.1,0-0.2,0.1-0.3,0.3S7,1.1,6.9,1.4c-0.6,0.1-1,0.3-1.3,0.5C5.3,2.1,5.1,2.3,5,2.7C4.8,3,4.8,3.4,4.7,4l0,0
	c-0.5,0-1,0-1.6,0C2.8,4,2.6,4.1,2.5,4.3C2.5,4.4,2.4,4.6,2.4,4.8C1.8,5,1.4,5.3,1.2,5.6C0.9,5.9,0.8,6.4,0.8,7v6.4
	c0,0.4,0.1,0.6,0.2,0.8c0.1,0.1,0.4,0.2,0.8,0.2h3.5v0c0.1,0,0.2,0,0.4,0h6.9l0.6,0V4.2c0-0.6-0.1-1.1-0.2-1.4
	c-0.1-0.3-0.3-0.6-0.6-0.8S11.7,1.5,11.1,1.4L11.1,1.4z M3.9,11.9c-0.4,0-0.6,0.1-0.7,0.2C3.1,12.2,3,12.4,3,12.8v0.5h-1l0-0.2
	c0-3.1,0-5.2,0-6.3c0-0.3,0.1-0.5,0.2-0.6C2.2,6,2.4,6,2.7,6h2.1v1.6c-0.2,0-0.3,0.1-0.4,0.2C4.3,7.8,4.3,8,4.3,8.2
	c0,0.2,0,0.4,0.1,0.5c0.1,0.1,0.2,0.2,0.4,0.2v0.5c-0.3,0-0.4,0.3-0.4,0.7c0,0.2,0,0.4,0.1,0.5c0.1,0.1,0.2,0.2,0.4,0.2v1.4
	C4.7,12.1,4.6,12,4.5,12S4.2,11.9,3.9,11.9L3.9,11.9z M12.1,13.3h-1.8v-1.1c0-0.3-0.1-0.6-0.2-0.7c-0.1-0.1-0.3-0.2-0.6-0.2
	c-0.4,0-0.8,0-1.1,0c-0.3,0-0.4,0.1-0.6,0.2c-0.1,0.1-0.2,0.3-0.2,0.6v1.2H5.8l0-0.5V3.9c0-0.5,0.1-0.8,0.3-1s0.5-0.3,1-0.3
	c1.3,0,2.5,0,3.7,0c0.4,0,0.8,0.1,1,0.3c0.2,0.2,0.3,0.6,0.3,1v9L12.1,13.3z M3,8.9c0.2,0,0.4-0.1,0.5-0.2c0.1-0.1,0.1-0.3,0-0.5
	c0-0.2,0-0.4-0.1-0.5C3.3,7.6,3.2,7.5,3,7.5c-0.2,0-0.4,0.1-0.4,0.2C2.4,7.8,2.4,8,2.4,8.2c0,0.2,0,0.4,0.1,0.5
	C2.6,8.9,2.7,8.9,3,8.9L3,8.9z M3,9.4c-0.2,0-0.4,0.1-0.5,0.2c-0.1,0.1-0.1,0.3-0.1,0.5c0,0.2,0,0.4,0.1,0.5
	c0.1,0.1,0.2,0.2,0.5,0.2c0.2,0,0.4-0.1,0.5-0.2c0.1-0.1,0.1-0.3,0-0.5c0-0.2,0-0.4-0.1-0.5C3.3,9.5,3.2,9.4,3,9.4L3,9.4z M7.5,3.9
	C7.2,3.9,7.1,4,7,4C6.9,4,6.8,4.1,6.8,4.2c0,0.1,0,0.3,0,0.6c0,0.3,0,0.5,0,0.6c0,0.1,0.1,0.2,0.2,0.2c0.1,0,0.3,0.1,0.5,0.1
	s0.4,0,0.5-0.1c0.1,0,0.2-0.1,0.2-0.2c0-0.1,0-0.3,0-0.6s0-0.5,0-0.6C8.1,4.1,8.1,4,8,4C7.9,4,7.7,3.9,7.5,3.9L7.5,3.9z M7.4,8.6
	c-0.2,0-0.4,0-0.5,0.1c-0.1,0-0.2,0.1-0.2,0.2c0,0.1,0,0.3,0,0.6c0,0.3,0,0.5,0,0.6c0,0.1,0.1,0.2,0.2,0.2c0.1,0,0.3,0.1,0.5,0.1
	s0.4,0,0.5-0.1c0.1,0,0.2-0.1,0.2-0.2c0-0.1,0-0.3,0-0.6s0-0.5,0-0.6c0-0.1-0.1-0.2-0.2-0.2C7.9,8.6,7.7,8.6,7.4,8.6L7.4,8.6z
	 M8.2,7.2c0-0.3,0-0.5,0-0.6c0-0.1-0.1-0.2-0.2-0.2c-0.1,0-0.2,0-0.5,0c-0.3,0-0.4,0-0.5,0c-0.1,0-0.2,0.1-0.2,0.2
	c0,0.1,0,0.3,0,0.6s0,0.5,0,0.6C6.8,7.9,6.9,8,7,8c0.1,0,0.2,0,0.5,0S7.9,8,8,8c0.1,0,0.2-0.1,0.2-0.2C8.2,7.7,8.2,7.5,8.2,7.2
	L8.2,7.2z M10.4,3.9C10.2,3.9,10,4,9.9,4C9.8,4,9.8,4.1,9.7,4.2c0,0.1,0,0.3,0,0.6c0,0.3,0,0.5,0,0.6s0.1,0.2,0.2,0.2
	c0.1,0,0.3,0.1,0.5,0.1c0.2,0,0.4,0,0.5-0.1c0.1,0,0.2-0.1,0.2-0.2c0-0.1,0-0.3,0-0.6s0-0.5,0-0.6C11.1,4.1,11,4,10.9,4
	C10.8,4,10.7,3.9,10.4,3.9L10.4,3.9z M10.4,8.6c-0.2,0-0.4,0-0.5,0.1c-0.1,0-0.2,0.1-0.2,0.2s0,0.3,0,0.6c0,0.3,0,0.5,0,0.6
	c0,0.1,0.1,0.2,0.2,0.2c0.1,0,0.3,0.1,0.5,0.1c0.2,0,0.4,0,0.5-0.1c0.1,0,0.2-0.1,0.2-0.2c0-0.1,0-0.3,0-0.6s0-0.5,0-0.6
	c0-0.1-0.1-0.2-0.2-0.2C10.8,8.6,10.7,8.6,10.4,8.6L10.4,8.6z M11.2,7.2c0-0.3,0-0.5,0-0.6c0-0.1-0.1-0.2-0.2-0.2
	c-0.1,0-0.2,0-0.5,0c-0.3,0-0.4,0-0.5,0c-0.1,0-0.2,0.1-0.2,0.2c0,0.1,0,0.3,0,0.6s0,0.5,0,0.6C9.7,7.9,9.8,8,9.9,8
	c0.1,0,0.3,0,0.5,0s0.4,0,0.5,0c0.1,0,0.2-0.1,0.2-0.2C11.2,7.7,11.2,7.5,11.2,7.2L11.2,7.2z"/>
</svg>
