<?xml version="1.0" encoding="utf-8"?>
<!-- Generator: Adobe Illustrator 20.1.0, SVG Export Plug-In . SVG Version: 6.00 Build 0)  -->
<svg version="1.1" id="Layer_1" xmlns="http://www.w3.org/2000/svg" xmlns:xlink="http://www.w3.org/1999/xlink" x="0px" y="0px"
	 viewBox="0 0 14 15" style="enable-background:new 0 0 14 15;" xml:space="preserve">

<title>search</title>
<desc>Created with Sketch.</desc>
<path d="M13.9,13.3l-3.6-3.6c0.5-0.5,0.9-1.1,1.1-1.8c0.3-0.7,0.4-1.4,0.4-2.1c0-1-0.3-2-0.8-2.9
	c-0.5-0.9-1.2-1.6-2.1-2.1C7.9,0.4,7,0.1,5.9,0.1s-2.1,0.3-3,0.8C2,1.4,1.3,2.1,0.8,3C0.3,3.9,0,4.9,0,5.9s0.3,2,0.8,2.9
	c0.5,0.9,1.2,1.6,2.1,2.1c0.9,0.5,1.9,0.8,3,0.8c0.7,0,1.4-0.1,2-0.3c0.6-0.2,1.2-0.5,1.7-1l3.6,3.6c0.1,0.1,0.2,0.1,0.3,0.1
	s0.2,0,0.3-0.1c0.1-0.1,0.1-0.2,0.1-0.3C14,13.5,14,13.4,13.9,13.3L13.9,13.3z M5.9,10.8c-0.9,0-1.7-0.2-2.5-0.7
	C2.6,9.7,2,9.1,1.6,8.4C1.1,7.6,0.9,6.8,0.9,5.9s0.2-1.7,0.7-2.5c0.4-0.7,1-1.3,1.8-1.8C4.1,1.2,5,1,5.9,1s1.7,0.2,2.5,0.7
	c0.8,0.4,1.4,1,1.8,1.8c0.5,0.8,0.7,1.6,0.7,2.5s-0.2,1.7-0.7,2.5c-0.4,0.7-1,1.3-1.8,1.8C7.6,10.6,6.8,10.8,5.9,10.8L5.9,10.8z"/>
</svg>
