<?xml version="1.0" encoding="UTF-8" standalone="no"?>
<svg width="7px" height="4px" viewBox="0 0 7 4" version="1.1" xmlns="http://www.w3.org/2000/svg" xmlns:xlink="http://www.w3.org/1999/xlink">
    <!-- Generator: Sketch 3.8.3 (29802) - http://www.bohemiancoding.com/sketch -->
    <title>0033</title>
    <desc>Created with Sketch.</desc>
    <defs></defs>
    <g id="Bye-IQ-Performance-Report" stroke="none" stroke-width="1" fill="none" fill-rule="evenodd">
        <g id="Bye-IQ-PerformanceReport@2x" transform="translate(-482.000000, -404.000000)" fill="#000000">
            <g id="Group-22" transform="translate(262.000000, 396.000000)">
                <g id="Group-25" transform="translate(220.000000, 0.000000)">
                    <g id="0033" transform="translate(3.500000, 10.000000) scale(1, -1) translate(-3.500000, -10.000000) translate(0.000000, 8.000000)">
                        <path d="M6.24713553,0.297743111 L3.70416667,2.69357644 L1.1611978,0.297743111 C0.9606772,0.0894097778 0.760156133,0.0850693333 0.559635533,0.284722222 C0.359114467,0.484375111 0.359114467,0.679687556 0.559635533,0.870659556 L3.40338553,3.57899289 C3.4763022,3.66579867 3.57656227,3.70920133 3.70416667,3.70920133 C3.83177107,3.70920133 3.93203113,3.66579867 4.0049478,3.57899289 L6.8486978,0.870659556 C7.04921887,0.679687556 7.04921887,0.484375111 6.8486978,0.284722222 C6.6481772,0.0850693333 6.44765613,0.0894097778 6.24713553,0.297743111 L6.24713553,0.297743111 Z" id="Shape"></path>
                    </g>
                </g>
            </g>
        </g>
    </g>
</svg>