<?xml version="1.0" encoding="utf-8"?>
<!-- Generator: Adobe Illustrator 20.1.0, SVG Export Plug-In . SVG Version: 6.00 Build 0)  -->
<svg version="1.1" id="Layer_1" xmlns="http://www.w3.org/2000/svg" xmlns:xlink="http://www.w3.org/1999/xlink" x="0px" y="0px"
	 viewBox="0 0 16 17" style="enable-background:new 0 0 16 17;" xml:space="preserve">

<path d="M8,16.4H2.3c-0.3,0-0.5,0-0.7-0.1C1.2,16,1,15.7,1,15.3v-0.9v-1c0-0.6,0.2-1.2,0.8-1.6
	c0.4-0.3,0.9-0.6,1.6-0.9c0.5-0.2,1.4-0.6,2.6-1.2c0.1-0.1,0.2-0.1,0.2-0.3c0-0.3,0.1-0.6,0.1-0.9c0-0.1,0-0.1-0.1-0.2
	c-0.5-0.5-0.8-1.1-1-1.8c0-0.1,0-0.1-0.1-0.1c0,0-0.1,0-0.1,0C4.7,6.4,4.6,6.2,4.6,6L4.4,5c0-0.2,0-0.4,0.2-0.5c0.1,0,0.1,0,0.1-0.1
	s0-0.1,0-0.1C4.6,3.8,4.7,3.3,4.8,2.6C5,2.1,5.2,1.7,5.6,1.3s0.8-0.5,1.3-0.6c0.3,0,0.5-0.1,0.7-0.2C8,0.4,8.5,0.3,8.9,0.5
	c1.2,0.4,2,1.2,2.3,2.4c0.1,0.2,0.1,0.4,0.1,0.7c0,0.1,0,0.4-0.1,0.7c0,0.1,0,0.1,0,0.2s0,0,0.1,0.1c0.2,0.1,0.3,0.2,0.3,0.4L11.4,6
	c0,0.2-0.2,0.3-0.4,0.3c-0.1,0-0.2,0.1-0.2,0.1c-0.1,0.6-0.4,1.2-0.9,1.7C9.8,8.3,9.8,8.4,9.8,8.6c0,0.3,0.1,0.6,0.1,0.7
	c0,0.1,0,0.2,0.1,0.2c0,0.1,0.1,0.1,0.2,0.1c1.1,0.5,2.1,1,2.8,1.3c0.5,0.2,1,0.5,1.4,0.8c0.5,0.4,0.7,0.9,0.7,1.6c0,1,0,1.7,0,2
	c0,0.3-0.1,0.5-0.3,0.7c-0.2,0.2-0.4,0.3-0.7,0.4c-0.2,0-0.4,0-0.6,0h-0.6l-0.6,0C11.5,16.4,10.1,16.4,8,16.4L8,16.4z"/>
</svg>
